<svg aria-hidden="true" style="position: absolute; width: 0; height: 0; overflow: hidden;" version="1.1" xmlns="http://www.w3.org/2000/svg" xmlns:xlink="http://www.w3.org/1999/xlink">
<defs>
<symbol xmlns="http://www.w3.org/2000/svg" viewBox="0 0 14 14" id="icon-close">
    <path d="M13.3.7c-.2-.2-.4-.3-.7-.3-.3 0-.5.1-.7.3L7 5.6 2.1.7C1.9.5 1.7.4 1.4.4S.9.5.7.7c-.4.4-.4 1 0 1.4L5.6 7 .7 11.9c-.4.4-.4 1 0 1.4.4.4 1 .4 1.4 0L7 8.4l4.9 4.9c.4.4 1 .4 1.4 0 .4-.4.4-1 0-1.4L8.4 7l4.9-4.9c.4-.4.4-1 0-1.4z"></path>
  </symbol>
<symbol xmlns="http://www.w3.org/2000/svg" viewBox="0 0 18 12" id="icon-menu">
    <path d="M1 2c-.6 0-1-.5-1-1s.4-1 1-1h16c.5 0 1 .4 1 1s-.5 1-1 1H1zm0 5h16c.5 0 1-.4 1-1s-.5-1-1-1H1c-.6 0-1 .4-1 1s.4 1 1 1zm0 5h16c.5 0 1-.4 1-1s-.5-1-1-1H1c-.6 0-1 .4-1 1s.4 1 1 1z" fill-rule="evenodd" clip-rule="evenodd"></path>
  </symbol>
<symbol xmlns="http://www.w3.org/2000/svg" preserveAspectRatio="none" viewBox="0 0 1440 320" id="icon-hero-bg-img">
    <path fill="#F4F6F8" fill-opacity="10" d="M0 256l21.8-5.3C43.6 245 87 235 131 192c43.5-43 87-117 131-112 43.5 5 87 91 131 106.7 43.4 16.3 87-37.7 131-37.4 43.3-.3 87 53.7 131 48 43.2-5.3 87-69.3 130-106.6C829.1 53 873 43 916 69.3 960 96 1004 160 1047 176c43.9 16 88-16 131-37.3 43.8-21.7 87-31.7 131-26.7 43.7 5 87 27 109 37.3l22 10.7V0H0z"></path>
  </symbol>
<symbol xmlns="http://www.w3.org/2000/svg" viewBox="0 0 8 12" id="icon-arrow-right">
    <path d="M1 9.9L4.9 6 1 2.1c-.2-.2-.3-.4-.3-.7S.8.9 1 .7c.4-.4 1-.4 1.4 0L7 5.3c.4.4.4 1 0 1.4l-4.6 4.6c-.4.4-1 .4-1.4 0-.4-.4-.4-1 0-1.4z"></path>
  </symbol>
</defs>
</svg>